<svg width="202" height="177" viewBox="0 0 202 177" fill="none" xmlns="http://www.w3.org/2000/svg">
<path d="M12 95.118C26.8926 78.8158 43.4869 64.0538 60.3959 49.8147C75.5886 37.0211 91.3626 24.0247 108.399 13.6274C109.19 13.145 109.984 12.6646 110.811 12.2462C112.066 11.611 111.347 12.3542 110.867 12.7987C106.754 16.6017 102.289 20.109 98.0247 23.7378C79.5452 39.4644 61.8365 55.9611 45.8435 74.179C35.9294 85.4724 25.9826 97.5806 18.8977 110.864C18.3022 111.98 17.7717 113.134 17.3275 114.317C16.8414 115.611 16.0027 117.4 18.393 116.223C26.4926 112.233 34.0869 104.761 40.9927 99.2616C66.2167 79.1732 91.8137 59.8307 118.045 41.0303C124.804 36.1856 131.733 31.4512 138.205 26.2239C139.26 25.3721 141.868 22.6372 140.532 22.909C138.699 23.2821 134.761 25.2909 133.579 25.9477C126.038 30.1353 119.017 35.2464 112.269 40.5607C92.8311 55.8674 76.0309 73.9696 61.7699 94.0406C54.1165 104.812 46.999 116.031 40.6562 127.604C39.4368 129.829 38.2845 132.092 37.2354 134.399C36.58 135.841 34.9931 139.231 36.5905 139.095C37.5069 139.017 38.3355 138.459 39.086 137.935C42.9009 135.272 51.8754 127.214 54.2834 125.062C68.1914 112.637 81.8979 99.9963 95.8377 87.6043C114.374 71.1261 134.031 55.1718 150.486 36.5829C151.36 35.5956 156.82 30.2003 155.73 27.7709C154.525 25.0859 146.094 29.4043 145.86 29.5112C135.854 34.0849 126.756 40.6255 118.269 47.4943C105.377 57.9286 93.3453 69.4556 82.4629 81.9137C73.7741 91.8606 65.9325 102.551 58.8818 113.681C55.5917 118.875 49.8226 126.584 49.068 133.046C48.679 136.377 51.3016 134.967 53.1618 134.04C62.7 129.286 71.168 121.179 79.3505 114.62C102.271 96.2498 125.932 78.687 148.383 59.7594C153.795 55.1971 159.995 50.4518 164.478 44.8977C166.223 42.7355 164.533 42.6633 162.627 43.406C154.638 46.5202 147.05 52.1435 140.252 57.0798C129.059 65.2082 118.543 74.131 109.128 84.2342C95.5351 98.822 83.4272 115.544 75.0044 133.57C74.1338 135.434 67.4188 148.073 70.7705 151.084C74.3614 154.31 88.6321 141.275 88.94 141.029C113.63 121.325 137.679 99.6882 159.123 76.5547C163.552 71.7762 168.335 66.7246 171.768 61.1406C172.765 59.5194 174.013 56.9815 170.759 57.8533C166.787 58.9175 162.027 61.5669 158.758 63.461C148.565 69.366 139.086 76.4406 130.55 84.5104C120.387 94.1195 111.459 105.008 103.436 116.388C97.3816 124.978 90.613 134.635 87.538 144.841C86.5153 148.235 86.193 153.004 91.2953 151.94C100.611 149.999 110.103 140.987 116.923 135.394C139.634 116.769 162.263 96.6967 181.806 74.7868C184.357 71.9274 188.646 67.7513 189.657 63.7648C189.764 63.3446 189.988 62.6732 189.601 62.4665C187.652 61.4238 185.294 63.6881 183.377 64.7869C161.97 77.0515 143.581 94.8605 129.148 114.565C121.248 125.351 114.448 137.012 109.689 149.482C107.847 154.308 104.478 165.841 109.633 164.951C116.96 163.686 125.694 155.049 130.971 150.78C141.043 142.634 150.612 133.934 160.384 125.449" stroke="#94E5D5" stroke-width="24" stroke-linecap="round"/>
</svg>
