<svg width="19" height="17" viewBox="0 0 19 17" xmlns="http://www.w3.org/2000/svg">
<path d="M5.25 3.375V0.875C5.25 0.70924 5.31585 0.550268 5.43306 0.433058C5.55027 0.315848 5.70924 0.25 5.875 0.25C6.04076 0.25 6.19973 0.315848 6.31694 0.433058C6.43415 0.550268 6.5 0.70924 6.5 0.875V3.375C6.5 3.54076 6.43415 3.69973 6.31694 3.81694C6.19973 3.93415 6.04076 4 5.875 4C5.70924 4 5.55027 3.93415 5.43306 3.81694C5.31585 3.69973 5.25 3.54076 5.25 3.375ZM8.375 4C8.54076 4 8.69973 3.93415 8.81694 3.81694C8.93415 3.69973 9 3.54076 9 3.375V0.875C9 0.70924 8.93415 0.550268 8.81694 0.433058C8.69973 0.315848 8.54076 0.25 8.375 0.25C8.20924 0.25 8.05027 0.315848 7.93306 0.433058C7.81585 0.550268 7.75 0.70924 7.75 0.875V3.375C7.75 3.54076 7.81585 3.69973 7.93306 3.81694C8.05027 3.93415 8.20924 4 8.375 4ZM10.875 4C11.0408 4 11.1997 3.93415 11.3169 3.81694C11.4342 3.69973 11.5 3.54076 11.5 3.375V0.875C11.5 0.70924 11.4342 0.550268 11.3169 0.433058C11.1997 0.315848 11.0408 0.25 10.875 0.25C10.7092 0.25 10.5503 0.315848 10.4331 0.433058C10.3158 0.550268 10.25 0.70924 10.25 0.875V3.375C10.25 3.54076 10.3158 3.69973 10.4331 3.81694C10.5503 3.93415 10.7092 4 10.875 4ZM18.375 8.375V9C18.3746 9.7947 18.0714 10.5594 17.5271 11.1385C16.9829 11.7175 16.2385 12.0675 15.4453 12.1172C15.0148 13.3212 14.2896 14.3983 13.3359 15.25H15.25C15.4158 15.25 15.5747 15.3158 15.6919 15.4331C15.8092 15.5503 15.875 15.7092 15.875 15.875C15.875 16.0408 15.8092 16.1997 15.6919 16.3169C15.5747 16.4342 15.4158 16.5 15.25 16.5H1.5C1.33424 16.5 1.17527 16.4342 1.05806 16.3169C0.940848 16.1997 0.875 16.0408 0.875 15.875C0.875 15.7092 0.940848 15.5503 1.05806 15.4331C1.17527 15.3158 1.33424 15.25 1.5 15.25H3.41406C2.6176 14.5449 1.97954 13.6791 1.5419 12.7095C1.10426 11.74 0.876972 10.6887 0.875 9.625V5.875C0.875 5.70924 0.940848 5.55027 1.05806 5.43306C1.17527 5.31585 1.33424 5.25 1.5 5.25H15.25C16.0788 5.25 16.8737 5.57924 17.4597 6.16529C18.0458 6.75134 18.375 7.5462 18.375 8.375ZM17.125 8.375C17.1246 7.98763 17.0041 7.6099 16.7803 7.29374C16.5565 6.97757 16.2402 6.7385 15.875 6.60938V9.625C15.8755 10.0175 15.8441 10.4094 15.7812 10.7969C16.169 10.6823 16.5094 10.4454 16.7516 10.1216C16.9937 9.7978 17.1247 9.40436 17.125 9V8.375Z"/>
</svg>
