<svg width="20" height="20" viewBox="0 0 20 20" xmlns="http://www.w3.org/2000/svg">
<path d="M17.5758 5.81667C16.8675 5.03333 15.6842 4.64167 13.9675 4.64167H13.7675V4.60833C13.7675 3.20833 13.7675 1.475 10.6342 1.475H9.36751C6.23418 1.475 6.23418 3.21667 6.23418 4.60833V4.65H6.03418C4.30918 4.65 3.13418 5.04166 2.42585 5.825C1.60085 6.74166 1.62584 7.975 1.70918 8.81666L1.71751 8.875L1.7783 9.51328C1.79256 9.66305 1.87332 9.79843 1.99931 9.88066C2.20137 10.0125 2.51111 10.2113 2.70085 10.3167C2.81751 10.3917 2.94251 10.4583 3.06751 10.525C4.49251 11.3083 6.05918 11.8333 7.65085 12.0917C7.72584 12.875 8.06751 13.7917 9.89251 13.7917C11.7175 13.7917 12.0758 12.8833 12.1342 12.075C13.8342 11.8 15.4758 11.2083 16.9592 10.3417C17.0092 10.3167 17.0425 10.2917 17.0842 10.2667C17.4044 10.0857 17.7362 9.864 18.0408 9.64532C18.154 9.56405 18.2263 9.43792 18.2417 9.29941L18.2508 9.21667L18.2925 8.825C18.3008 8.775 18.3008 8.73333 18.3092 8.675C18.3758 7.83333 18.3592 6.68333 17.5758 5.81667ZM10.9092 11.525C10.9092 12.4083 10.9092 12.5417 9.88418 12.5417C8.85918 12.5417 8.85918 12.3833 8.85918 11.5333V10.4833H10.9092V11.525ZM7.42584 4.64167V4.60833C7.42584 3.19167 7.42584 2.66667 9.36751 2.66667H10.6342C12.5758 2.66667 12.5758 3.2 12.5758 4.60833V4.65H7.42584V4.64167Z"/>
<path d="M17.2589 11.5091C17.613 11.3418 18.0202 11.6223 17.9848 12.0123L17.6992 15.1583C17.5242 16.825 16.8409 18.525 13.1742 18.525H6.82422C3.15755 18.525 2.47422 16.825 2.29922 15.1667L2.02851 12.1888C1.99347 11.8034 2.39179 11.5233 2.74482 11.682C3.70402 12.1131 5.31603 12.8065 6.35201 13.0854C6.51602 13.1296 6.64917 13.2476 6.72357 13.4003C7.23777 14.4556 8.32696 15.0167 9.89088 15.0167C11.4394 15.0167 12.5419 14.434 13.058 13.3755C13.1326 13.2227 13.2656 13.1048 13.4297 13.0604C14.5315 12.7619 16.2528 11.9846 17.2589 11.5091Z" />
</svg>
