<svg width="20" height="20" viewBox="0 0 20 20" xmlns="http://www.w3.org/2000/svg">
<path d="M17.3586 6.675L11.9003 2.30833C10.8336 1.45833 9.16696 1.45 8.10863 2.3L2.65029 6.675C1.86696 7.3 1.39196 8.55 1.55863 9.53333L2.60863 15.8167C2.85029 17.225 4.15863 18.3333 5.58363 18.3333H14.417C15.8253 18.3333 17.1586 17.2 17.4003 15.8083L18.4503 9.525C18.6003 8.55 18.1253 7.3 17.3586 6.675ZM10.6253 15C10.6253 15.3417 10.342 15.625 10.0003 15.625C9.65863 15.625 9.37529 15.3417 9.37529 15V12.5C9.37529 12.1583 9.65863 11.875 10.0003 11.875C10.342 11.875 10.6253 12.1583 10.6253 12.5V15Z"/>
</svg>
