<svg width="20" height="20" viewBox="0 0 20 20" xmlns="http://www.w3.org/2000/svg">
<path d="M12.916 10.959H11.1077C9.62435 10.959 8.41602 9.75898 8.41602 8.26732V6.45898C8.41602 6.11732 8.14102 5.83398 7.79102 5.83398H5.14935C3.22435 5.83398 1.66602 7.08398 1.66602 9.31732V14.8507C1.66602 17.084 3.22435 18.334 5.14935 18.334H10.0577C11.9827 18.334 13.541 17.084 13.541 14.8507V11.584C13.541 11.234 13.2577 10.959 12.916 10.959Z"/>
<path d="M14.8501 1.66602H13.2085H12.3001H9.9418C8.05846 1.66602 6.53346 2.86602 6.4668 5.00768C6.5168 5.00768 6.55846 4.99935 6.60846 4.99935H8.9668H9.87513H11.5168C13.4418 4.99935 15.0001 6.24935 15.0001 8.48268V10.1243V12.3827V14.0243C15.0001 14.0743 14.9918 14.116 14.9918 14.1577C16.8501 14.0993 18.3335 12.866 18.3335 10.691V9.04935V6.79102V5.14935C18.3335 2.91602 16.7751 1.66602 14.8501 1.66602Z"/>
<path d="M9.9832 5.9591C9.72487 5.70077 9.2832 5.87577 9.2832 6.2341V8.41744C9.2832 9.3341 10.0582 10.0841 11.0082 10.0841C11.5999 10.0924 12.4249 10.0924 13.1332 10.0924C13.4915 10.0924 13.6749 9.67577 13.4249 9.42577C12.5165 8.51744 10.8999 6.89244 9.9832 5.9591Z"/>
</svg>
