<svg width="20" height="20" viewBox="0 0 20 20" xmlns="http://www.w3.org/2000/svg">
<path d="M9.99935 15.4167V16.15C9.99935 17.7083 9.37435 18.3333 7.80768 18.3333H3.84935C2.64102 18.3333 1.66602 17.3583 1.66602 16.15V12.1917C1.66602 10.625 2.29102 10 3.84935 10H4.58268V12.9167C4.58268 14.3 5.69935 15.4167 7.08268 15.4167H9.99935Z"/>
<path d="M14.1673 11.2506V11.9756C14.1673 13.184 13.184 14.1673 11.9756 14.1673H8.01732C6.45898 14.1673 5.83398 13.5423 5.83398 11.9756V8.01732C5.83398 6.80898 6.80898 5.83398 8.01732 5.83398H8.75065V8.75065C8.75065 10.134 9.86732 11.2506 11.2506 11.2506H14.1673Z"/>
<path d="M18.3333 3.84935V7.80768C18.3333 9.37435 17.7083 9.99935 16.1417 9.99935H12.1833C10.625 9.99935 10 9.37435 10 7.80768V3.84935C10 2.29102 10.625 1.66602 12.1833 1.66602H16.1417C17.7083 1.66602 18.3333 2.29102 18.3333 3.84935Z"/>
</svg>
