<svg width="20" height="20" viewBox="0 0 20 20" xmlns="http://www.w3.org/2000/svg">
<path d="M18.3092 15V15.8333C18.3092 17.2083 18.3092 18.3333 15.8092 18.3333H4.14258C1.64258 18.3333 1.64258 17.2083 1.64258 15.8333V15C1.64258 14.5417 2.01758 14.1667 2.47591 14.1667H17.4759C17.9342 14.1667 18.3092 14.5417 18.3092 15Z"/>
<path d="M12.0079 4.31666C12.0496 4.14999 12.0746 3.99166 12.0829 3.81666C12.1079 2.84999 11.5163 1.99999 10.5829 1.74999C9.18294 1.36666 7.91628 2.41666 7.91628 3.74999C7.91628 3.94999 7.94128 4.13333 7.99128 4.31666C4.98294 4.95833 2.72461 7.63333 2.72461 10.8333V12.0833C2.72461 12.5417 3.09961 12.9167 3.55794 12.9167H16.4329C16.8913 12.9167 17.2663 12.5417 17.2663 12.0833V10.8333C17.2663 7.63333 15.0163 4.96666 12.0079 4.31666ZM12.4996 9.79166H7.49961C7.15794 9.79166 6.87461 9.50833 6.87461 9.16666C6.87461 8.82499 7.15794 8.54166 7.49961 8.54166H12.4996C12.8413 8.54166 13.1246 8.82499 13.1246 9.16666C13.1246 9.50833 12.8413 9.79166 12.4996 9.79166Z"/>
</svg>
