<svg width="12" height="12" viewBox="0 0 12 12" xmlns="http://www.w3.org/2000/svg">
<path d="M1.71495 3.9596L1.71489 3.95965C1.67771 3.99608 1.64818 4.03956 1.62801 4.08755C1.60785 4.13554 1.59746 4.18706 1.59746 4.23912C1.59746 4.29117 1.60785 4.3427 1.62801 4.39068C1.64818 4.43867 1.67771 4.48215 1.71489 4.51858L1.71498 4.51867L5.70273 8.40665L5.70274 8.40665C5.7821 8.48401 5.88855 8.52731 5.99939 8.52731C6.11022 8.52731 6.21667 8.48401 6.29604 8.40665L6.26114 8.37085L6.29604 8.40665L10.2838 4.51944C10.2838 4.51943 10.2838 4.51943 10.2838 4.51942C10.3212 4.48297 10.351 4.43939 10.3713 4.39125C10.3916 4.3431 10.4021 4.29137 10.4021 4.23912C10.4021 4.18686 10.3916 4.13513 10.3713 4.08698C10.351 4.03884 10.3212 3.99525 10.2838 3.95879L10.2489 3.99462L10.2838 3.95885C10.2075 3.88431 10.1051 3.84258 9.99839 3.84258C9.89171 3.84258 9.78926 3.88431 9.71295 3.95885L9.69789 3.97356V3.97428L5.99939 7.57953L2.28582 3.9596C2.28581 3.95959 2.2858 3.95958 2.28579 3.95956C2.20948 3.88505 2.10705 3.84333 2.00039 3.84333C1.89371 3.84333 1.79126 3.88506 1.71495 3.9596Z" stroke="#8E95A5" stroke-width="0.1"/>
</svg>
