<svg width="20" height="20" viewBox="0 0 20 20" fill="none" xmlns="http://www.w3.org/2000/svg">
<path d="M13.491 1.66602H6.50768C3.47435 1.66602 1.66602 3.47435 1.66602 6.50768V13.4827C1.66602 16.5244 3.47435 18.3327 6.50768 18.3327H13.4827C16.516 18.3327 18.3243 16.5244 18.3243 13.491V6.50768C18.3327 3.47435 16.5243 1.66602 13.491 1.66602ZM7.05768 9.14935C7.29935 8.90768 7.69935 8.90768 7.94102 9.14935L9.37435 10.5827V5.42435C9.37435 5.08268 9.65768 4.79935 9.99935 4.79935C10.341 4.79935 10.6243 5.08268 10.6243 5.42435V10.5827L12.0577 9.14935C12.2993 8.90768 12.6993 8.90768 12.941 9.14935C13.1827 9.39102 13.1827 9.79102 12.941 10.0327L10.441 12.5327C10.3827 12.591 10.316 12.6327 10.241 12.666C10.166 12.6993 10.0827 12.716 9.99935 12.716C9.91602 12.716 9.84102 12.6993 9.75768 12.666C9.68268 12.6327 9.61602 12.591 9.55768 12.5327L7.05768 10.0327C6.81602 9.79102 6.81602 9.39935 7.05768 9.14935ZM15.1993 14.3493C13.5243 14.9077 11.766 15.191 9.99935 15.191C8.23268 15.191 6.47435 14.9077 4.79935 14.3493C4.47435 14.241 4.29935 13.8827 4.40768 13.5577C4.51602 13.2327 4.86602 13.0493 5.19935 13.166C8.29935 14.1993 11.7077 14.1993 14.8077 13.166C15.1327 13.0577 15.491 13.2327 15.5993 13.5577C15.6993 13.891 15.5243 14.241 15.1993 14.3493Z" fill="#2E2E2E"/>
</svg>
