<svg width="20" height="20" viewBox="0 0 20 20" xmlns="http://www.w3.org/2000/svg">
<path d="M18.841 4.90427L13.3818 10.3283L18.841 15.7522C18.9397 15.546 18.9995 15.3179 18.9995 15.0745V5.58207C18.9995 5.33853 18.9397 5.11054 18.841 4.90427Z"/>
<path d="M17.4183 4H2.58209C2.33856 4 2.11056 4.05987 1.9043 4.15856L8.88166 11.1008C9.4986 11.7177 10.5018 11.7177 11.1188 11.1008L18.0961 4.15856C17.8899 4.05987 17.6619 4 17.4183 4Z"/>
<path d="M1.15856 4.90427C1.05987 5.11054 1 5.33853 1 5.58207V15.0745C1 15.318 1.05987 15.546 1.15856 15.7522L6.6177 10.3283L1.15856 4.90427Z"/>
<path d="M12.637 11.074L11.8645 11.8465C10.8365 12.8744 9.16387 12.8744 8.13591 11.8465L7.36344 11.074L1.9043 16.498C2.11056 16.5966 2.33856 16.6565 2.58209 16.6565H17.4183C17.6619 16.6565 17.8899 16.5966 18.0961 16.498L12.637 11.074Z"/>
</svg>
