<svg width="20" height="21" viewBox="0 0 20 21" xmlns="http://www.w3.org/2000/svg">
<path d="M11.0759 8.24117L7.74259 11.5745C7.66449 11.652 7.60249 11.7441 7.56018 11.8457C7.51788 11.9472 7.49609 12.0562 7.49609 12.1662C7.49609 12.2762 7.51788 12.3851 7.56018 12.4866C7.60249 12.5882 7.66449 12.6804 7.74259 12.7578C7.82006 12.8359 7.91223 12.8979 8.01378 12.9402C8.11533 12.9826 8.22425 13.0043 8.33426 13.0043C8.44427 13.0043 8.55319 12.9826 8.65474 12.9402C8.75629 12.8979 8.84846 12.8359 8.92593 12.7578L12.2593 9.4245C12.4162 9.26758 12.5043 9.05475 12.5043 8.83284C12.5043 8.61092 12.4162 8.39809 12.2593 8.24117C12.1023 8.08425 11.8895 7.99609 11.6676 7.99609C11.4457 7.99609 11.2328 8.08425 11.0759 8.24117Z"/>
<path d="M10.2336 15L9.16694 16.0583C8.56813 16.6753 7.76314 17.0503 6.90551 17.1118C6.04788 17.1733 5.19764 16.9169 4.51694 16.3916C4.15716 16.0952 3.86357 15.7265 3.65514 15.3095C3.4467 14.8925 3.32804 14.4365 3.30684 13.9708C3.28564 13.5051 3.36235 13.0401 3.53204 12.6059C3.70172 12.1717 3.96059 11.7779 4.29194 11.45L5.47527 10.2583C5.55338 10.1808 5.61537 10.0886 5.65768 9.9871C5.69999 9.88555 5.72177 9.77663 5.72177 9.66662C5.72177 9.55661 5.69999 9.44769 5.65768 9.34614C5.61537 9.24459 5.55338 9.15242 5.47527 9.07495C5.3978 8.99684 5.30563 8.93485 5.20408 8.89254C5.10253 8.85023 4.99361 8.82845 4.8836 8.82845C4.77359 8.82845 4.66467 8.85023 4.56312 8.89254C4.46157 8.93485 4.36941 8.99684 4.29194 9.07495L3.2336 10.1416C2.34207 11.005 1.79409 12.1625 1.69141 13.3993C1.58873 14.636 1.93831 15.8681 2.67527 16.8666C3.11267 17.4341 3.6658 17.9019 4.29793 18.2392C4.93005 18.5764 5.6267 18.7753 6.34159 18.8225C7.05648 18.8698 7.77325 18.7645 8.44428 18.5134C9.11532 18.2624 9.72527 17.8715 10.2336 17.3666L11.4169 16.1833C11.5739 16.0264 11.662 15.8135 11.662 15.5916C11.662 15.3697 11.5739 15.1569 11.4169 15C11.26 14.843 11.0472 14.7549 10.8253 14.7549C10.6034 14.7549 10.3905 14.843 10.2336 15ZM16.3836 3.18328C15.3782 2.43867 14.1361 2.08552 12.8893 2.1898C11.6425 2.29409 10.4764 2.84866 9.6086 3.74995L8.7086 4.66662C8.60574 4.7414 8.51972 4.83695 8.45612 4.94708C8.39252 5.05721 8.35275 5.17947 8.3394 5.30595C8.32605 5.43242 8.3394 5.56029 8.37859 5.68127C8.41779 5.80226 8.48196 5.91367 8.56694 6.00828C8.64441 6.08639 8.73657 6.14839 8.83812 6.19069C8.93967 6.233 9.04859 6.25478 9.1586 6.25478C9.26861 6.25478 9.37753 6.233 9.47908 6.19069C9.58063 6.14839 9.6728 6.08639 9.75027 6.00828L10.8336 4.91662C11.4291 4.29688 12.2331 3.91981 13.0904 3.85825C13.9477 3.79669 14.7973 4.055 15.4753 4.58328C15.8377 4.87978 16.1336 5.24933 16.3437 5.66784C16.5538 6.08634 16.6734 6.54442 16.6946 7.01222C16.7158 7.48002 16.6383 7.94705 16.4669 8.38286C16.2956 8.81868 16.0344 9.21351 15.7003 9.54162L14.5169 10.7333C14.4388 10.8108 14.3768 10.9029 14.3345 11.0045C14.2922 11.106 14.2704 11.2149 14.2704 11.325C14.2704 11.435 14.2922 11.5439 14.3345 11.6454C14.3768 11.747 14.4388 11.8391 14.5169 11.9166C14.5944 11.9947 14.6866 12.0567 14.7881 12.099C14.8897 12.1413 14.9986 12.1631 15.1086 12.1631C15.2186 12.1631 15.3275 12.1413 15.4291 12.099C15.5306 12.0567 15.6228 11.9947 15.7003 11.9166L16.8836 10.7333C17.3871 10.225 17.7768 9.61562 18.027 8.9454C18.2772 8.27518 18.3821 7.55945 18.3348 6.84562C18.2875 6.13179 18.0892 5.43615 17.7528 4.80477C17.4164 4.1734 16.9497 3.6207 16.3836 3.18328Z"/>
</svg>
