<svg width="20" height="20" viewBox="0 0 20 20" xmlns="http://www.w3.org/2000/svg">
<path d="M14.8125 7.75H14.25V5.5C14.25 3.01825 12.2318 1 9.75 1C7.26825 1 5.25 3.01825 5.25 5.5V7.75H4.6875C3.7575 7.75 3 8.50675 3 9.4375V17.3125C3 18.2432 3.7575 19 4.6875 19H14.8125C15.7425 19 16.5 18.2432 16.5 17.3125V9.4375C16.5 8.50675 15.7425 7.75 14.8125 7.75ZM6.75 5.5C6.75 3.8455 8.0955 2.5 9.75 2.5C11.4045 2.5 12.75 3.8455 12.75 5.5V7.75H6.75V5.5ZM10.5 13.5415V15.25C10.5 15.664 10.1648 16 9.75 16C9.33525 16 9 15.664 9 15.25V13.5415C8.55375 13.2812 8.25 12.8027 8.25 12.25C8.25 11.4227 8.92275 10.75 9.75 10.75C10.5773 10.75 11.25 11.4227 11.25 12.25C11.25 12.8027 10.9462 13.2812 10.5 13.5415Z"/>
</svg>
