<svg width="20" height="20" viewBox="0 0 20 20" xmlns="http://www.w3.org/2000/svg">
<path d="M13.491 1.66797H6.50768C3.47435 1.66797 1.66602 3.4763 1.66602 6.50964V13.4846C1.66602 16.5263 3.47435 18.3346 6.50768 18.3346H13.4827C16.516 18.3346 18.3243 16.5263 18.3243 13.493V6.50964C18.3327 3.4763 16.5243 1.66797 13.491 1.66797ZM4.37435 9.90964C4.39935 8.44297 4.98268 7.05964 6.01602 6.0263C7.08268 4.95964 8.49935 4.3763 9.99935 4.3763C11.4993 4.3763 12.916 4.95964 13.9743 6.0263C13.9993 6.0513 14.0243 6.08464 14.0493 6.11797V5.4013C14.0493 5.05964 14.3327 4.7763 14.6743 4.7763C15.016 4.7763 15.2993 5.05964 15.2993 5.4013V7.60964C15.2993 7.9513 15.016 8.23464 14.6743 8.23464H12.466C12.1243 8.23464 11.841 7.9513 11.841 7.60964C11.841 7.26797 12.1243 6.98464 12.466 6.98464H13.1577C13.1327 6.95964 13.116 6.93464 13.091 6.90964C12.266 6.08464 11.166 5.6263 9.99935 5.6263C8.83268 5.6263 7.73268 6.08464 6.90768 6.90964C6.09935 7.71797 5.64935 8.79297 5.63268 9.93464C5.62435 10.268 5.34102 10.543 4.99935 10.543H4.99102C4.64935 10.543 4.37435 10.2513 4.37435 9.90964ZM13.9743 13.9763C12.916 15.0346 11.4993 15.6263 9.99935 15.6263C8.49935 15.6263 7.08268 15.043 6.02435 13.9763C5.99935 13.9513 5.97435 13.918 5.94935 13.8846V14.593C5.94935 14.9346 5.66602 15.218 5.32435 15.218C4.98268 15.218 4.69935 14.9346 4.69935 14.593V12.3846C4.69935 12.043 4.98268 11.7596 5.32435 11.7596H7.53268C7.87435 11.7596 8.15768 12.043 8.15768 12.3846C8.15768 12.7263 7.87435 13.0096 7.53268 13.0096H6.84102C6.86602 13.0346 6.88268 13.0596 6.90768 13.0846C7.73268 13.9096 8.83268 14.368 9.99935 14.368C11.166 14.368 12.266 13.9096 13.091 13.0846C13.9077 12.268 14.366 11.1763 14.366 10.0096C14.366 9.66797 14.6493 9.38464 14.991 9.38464C15.3327 9.38464 15.616 9.66797 15.616 10.0096C15.616 11.518 15.0327 12.9263 13.9743 13.9763Z"/>
</svg>
