<svg width="20" height="20" viewBox="0 0 20 20" xmlns="http://www.w3.org/2000/svg">
<path d="M14.3164 4.375C12.8914 4.375 11.1914 4.91667 11.1914 7.5V12.5C11.1914 15.0833 12.8914 15.625 14.3164 15.625C15.7414 15.625 17.4414 15.0833 17.4414 12.5V7.5C17.4414 4.91667 15.7414 4.375 14.3164 4.375Z"/>
<path d="M5.68359 4.375C4.25859 4.375 2.55859 4.91667 2.55859 7.5V12.5C2.55859 15.0833 4.25859 15.625 5.68359 15.625C7.10859 15.625 8.80859 15.0833 8.80859 12.5V7.5C8.80859 4.91667 7.10859 4.375 5.68359 4.375Z"/>
<path d="M11.1919 9.375H8.80859V10.625H11.1919V9.375Z"/>
<path d="M18.75 12.7077C18.4083 12.7077 18.125 12.4243 18.125 12.0827V7.91602C18.125 7.57435 18.4083 7.29102 18.75 7.29102C19.0917 7.29102 19.375 7.57435 19.375 7.91602V12.0827C19.375 12.4243 19.0917 12.7077 18.75 12.7077Z"/>
<path d="M1.25 12.7077C0.908333 12.7077 0.625 12.4243 0.625 12.0827V7.91602C0.625 7.57435 0.908333 7.29102 1.25 7.29102C1.59167 7.29102 1.875 7.57435 1.875 7.91602V12.0827C1.875 12.4243 1.59167 12.7077 1.25 12.7077Z"/>
</svg>
