<svg width="18" height="18" viewBox="0 0 18 18" xmlns="http://www.w3.org/2000/svg">
<path d="M12.1023 1.43945H5.89661C3.43889 1.43945 1.43945 3.43889 1.43945 5.89661V12.1023C1.43945 14.56 3.43889 16.5595 5.89661 16.5595H12.1023C14.56 16.5595 16.5595 14.56 16.5595 12.1023V5.89661C16.5595 3.43889 14.56 1.43945 12.1023 1.43945ZM10.7995 10.9384C10.7995 11.2595 10.5395 11.5195 10.2184 11.5195H5.40125C4.60493 11.5195 3.95945 10.874 3.95945 10.0777V6.70013C3.95945 6.37937 4.21937 6.11945 4.54049 6.11945H9.35801C10.154 6.11945 10.7995 6.76493 10.7995 7.56125V10.9384ZM14.0395 10.87C14.0395 11.1526 13.7284 11.3251 13.4887 11.1753L11.6887 10.0503C11.5835 9.98441 11.5195 9.86921 11.5195 9.74501V7.89425C11.5195 7.77005 11.5835 7.65485 11.6887 7.58897L13.4887 6.46397C13.7284 6.31385 14.0395 6.48629 14.0395 6.76889V10.87Z"/>
</svg>

