<svg width="52" height="52" viewBox="0 0 52 52" fill="none" xmlns="http://www.w3.org/2000/svg">
<circle opacity="0.2" cx="26" cy="26" r="26" fill="#2B6AF5"/>
<circle cx="26" cy="26" r="15" fill="#2B6AF5"/>
<path d="M33.3586 22.6744L27.9003 18.3077C26.8336 17.4577 25.167 17.4494 24.1086 18.2994L18.6503 22.6744C17.867 23.2994 17.392 24.5494 17.5586 25.5327L18.6086 31.816C18.8503 33.2244 20.1586 34.3327 21.5836 34.3327H30.417C31.8253 34.3327 33.1586 33.1994 33.4003 31.8077L34.4503 25.5244C34.6003 24.5494 34.1253 23.2994 33.3586 22.6744ZM26.6253 30.9994C26.6253 31.341 26.342 31.6244 26.0003 31.6244C25.6586 31.6244 25.3753 31.341 25.3753 30.9994V28.4994C25.3753 28.1577 25.6586 27.8744 26.0003 27.8744C26.342 27.8744 26.6253 28.1577 26.6253 28.4994V30.9994Z" fill="white"/>
</svg>
