<svg width="52" height="52" viewBox="0 0 52 52" fill="none" xmlns="http://www.w3.org/2000/svg">
<circle opacity="0.2" cx="26" cy="26" r="26" fill="#8FC9FF"/>
<circle cx="26" cy="26" r="15" fill="#8FC9FF"/>
<path fill-rule="evenodd" clip-rule="evenodd" d="M18.916 24.5975C18.916 20.7643 22.1193 17.666 25.9939 17.666C29.8794 17.666 33.0827 20.7643 33.0827 24.5975C33.0827 26.5291 32.3802 28.3224 31.2239 29.8423C29.9484 31.5189 28.3761 32.9797 26.6065 34.1264C26.2014 34.3914 25.8359 34.4114 25.3914 34.1264C23.6116 32.9797 22.0394 31.5189 20.7748 29.8423C19.6177 28.3224 18.916 26.5291 18.916 24.5975ZM23.6612 24.8132C23.6612 26.0974 24.709 27.1073 25.9939 27.1073C27.2795 27.1073 28.3375 26.0974 28.3375 24.8132C28.3375 23.5391 27.2795 22.48 25.9939 22.48C24.709 22.48 23.6612 23.5391 23.6612 24.8132Z" fill="white"/>
</svg>
