<svg width="18" height="20" viewBox="0 0 18 20" fill="none" xmlns="http://www.w3.org/2000/svg">
<path d="M14.4802 11.2108C13.9301 8.44201 16.5581 6.81816 16.5581 6.81816C16.5581 6.81816 15.5342 5.33679 13.8134 4.9557C12.0934 4.57376 11.2325 5.05095 10.3734 5.40885C9.51341 5.76762 9.08429 5.76762 9.08429 5.76762C7.84324 5.76762 6.93602 4.4536 4.57151 5.05182C2.94252 5.46292 1.22768 7.34341 0.917844 9.5878C0.60801 11.833 1.27662 14.6979 2.56573 16.9183C3.85484 19.1404 5.16802 19.9754 6.10007 19.9995C7.03215 20.0226 7.96253 19.3317 9.08429 19.1635C10.2069 18.997 10.8978 19.5704 11.999 19.8802C13.0958 20.1892 13.4803 19.9025 14.7437 18.8279C16.0105 17.7534 17.1571 14.6713 17.1571 14.6713C17.1571 14.6713 15.0304 13.9813 14.4802 11.2108Z" fill="#2E2E2E"/>
<path d="M12.0444 3.16442C13.2631 1.92254 12.8503 0 12.8503 0C12.8503 0 11.1389 0.300404 9.99227 1.49338C8.84648 2.68724 9.03615 4.57286 9.03615 4.57286C9.03615 4.57286 10.8256 4.40551 12.0444 3.16442Z" fill="#2E2E2E"/>
</svg>
