<svg width="21" height="20" viewBox="0 0 21 20" fill="none" xmlns="http://www.w3.org/2000/svg">
<g clip-path="url(#clip0_491_390)">
<path d="M19.7446 8.26125L11.5868 8.26086C11.2266 8.26086 10.9346 8.55282 10.9346 8.91305V11.5191C10.9346 11.8793 11.2266 12.1713 11.5868 12.1713H16.1807C15.6777 13.4768 14.7388 14.5701 13.5409 15.2648L15.4998 18.6558C18.642 16.8385 20.4997 13.6498 20.4997 10.0804C20.4997 9.57215 20.4623 9.20883 20.3874 8.79973C20.3304 8.48891 20.0606 8.26125 19.7446 8.26125Z" fill="#167EE6"/>
<path d="M10.5005 16.0869C8.25234 16.0869 6.28969 14.8586 5.23559 13.0409L1.84473 14.9953C3.57031 17.986 6.80289 20 10.5005 20C12.3145 20 14.0261 19.5116 15.5005 18.6605V18.6558L13.5417 15.2648C12.6457 15.7845 11.6088 16.0869 10.5005 16.0869Z" fill="#12B347"/>
<path d="M15.5 18.6604V18.6558L13.5411 15.2648C12.6451 15.7844 11.6083 16.0869 10.5 16.0869V20C12.3139 20 14.0256 19.5116 15.5 18.6604Z" fill="#0F993E"/>
<path d="M4.41305 9.99999C4.41305 8.89182 4.71547 7.85507 5.23504 6.95909L1.84418 5.00464C0.988359 6.47444 0.5 8.18139 0.5 9.99999C0.5 11.8186 0.988359 13.5255 1.84418 14.9953L5.23504 13.0409C4.71547 12.1449 4.41305 11.1081 4.41305 9.99999Z" fill="#FFD500"/>
<path d="M10.5005 3.91305C11.9666 3.91305 13.3132 4.43398 14.3651 5.30051C14.6246 5.51426 15.0017 5.49883 15.2394 5.26113L17.0859 3.41465C17.3556 3.14496 17.3364 2.70352 17.0483 2.45359C15.286 0.924727 12.993 0 10.5005 0C6.80289 0 3.57031 2.01395 1.84473 5.00465L5.23559 6.9591C6.28969 5.14141 8.25234 3.91305 10.5005 3.91305Z" fill="#FF4B26"/>
<path d="M14.3645 5.30051C14.624 5.51426 15.0012 5.49883 15.2389 5.26113L17.0854 3.41465C17.355 3.14496 17.3358 2.70352 17.0477 2.45359C15.2854 0.924688 12.9925 0 10.5 0V3.91305C11.966 3.91305 13.3127 4.43398 14.3645 5.30051Z" fill="#D93F21"/>
</g>
<defs>
<clipPath id="clip0_491_390">
<rect width="20" height="20" fill="white" transform="translate(0.5)"/>
</clipPath>
</defs>
</svg>
