<svg width="20" height="20" viewBox="0 0 20 20" xmlns="http://www.w3.org/2000/svg">
<path d="M5 4.26667C4.65833 4.26667 4.375 3.98333 4.375 3.64167V2.18333C4.375 1.84167 4.65833 1.55833 5 1.55833C5.34167 1.55833 5.625 1.84167 5.625 2.18333V3.64167C5.625 3.99167 5.34167 4.26667 5 4.26667Z"/>
<path d="M8.33398 4.26667C7.99232 4.26667 7.70898 3.98333 7.70898 3.64167V2.18333C7.70898 1.84167 7.99232 1.55833 8.33398 1.55833C8.67565 1.55833 8.95898 1.84167 8.95898 2.18333V3.64167C8.95898 3.99167 8.67565 4.26667 8.33398 4.26667Z"/>
<path d="M11.666 4.26667C11.3243 4.26667 11.041 3.98333 11.041 3.64167V2.18333C11.041 1.84167 11.3243 1.55833 11.666 1.55833C12.0077 1.55833 12.291 1.84167 12.291 2.18333V3.64167C12.291 3.99167 12.0077 4.26667 11.666 4.26667Z"/>
<path d="M18.5423 11.0417C18.5423 8.85833 16.8506 7.09167 14.7173 6.90833C14.1006 5.9 13.0006 5.21667 11.734 5.21667H5.59232C3.65898 5.21667 2.08398 6.79167 2.08398 8.725V9.16667H15.2423V8.725C15.2423 8.56667 15.2173 8.40833 15.1923 8.25833C16.4006 8.61667 17.2923 9.71667 17.2923 11.0417C17.2923 12.35 16.4257 13.4417 15.2423 13.8083V10H2.08398V14.825C2.08398 16.7583 3.65898 18.3333 5.59232 18.3333H11.734C13.5673 18.3333 15.059 16.9167 15.209 15.1167C17.109 14.7333 18.5423 13.05 18.5423 11.0417Z"/>
</svg>
