<svg width="16" height="16" viewBox="0 0 16 16" xmlns="http://www.w3.org/2000/svg">
<path d="M14.0471 3.48732C12.9738 3.38065 11.9004 3.30065 10.8204 3.24065V3.23398L10.6738 2.36732C10.5738 1.75398 10.4271 0.833984 8.8671 0.833984H7.12043C5.5671 0.833984 5.42043 1.71398 5.31376 2.36065L5.17376 3.21398C4.55376 3.25398 3.93376 3.29398 3.31376 3.35398L1.95376 3.48732C1.67376 3.51398 1.47376 3.76065 1.50043 4.03398C1.5271 4.30732 1.7671 4.50732 2.0471 4.48065L3.4071 4.34732C6.90043 4.00065 10.4204 4.13398 13.9538 4.48732C13.9738 4.48732 13.9871 4.48732 14.0071 4.48732C14.2604 4.48732 14.4804 4.29398 14.5071 4.03398C14.5271 3.76065 14.3271 3.51398 14.0471 3.48732Z"/>
<path d="M12.8202 5.42602C12.6602 5.25935 12.4402 5.16602 12.2135 5.16602H3.78683C3.56016 5.16602 3.33349 5.25935 3.18016 5.42602C3.02683 5.59268 2.94016 5.81935 2.95349 6.05268L3.36683 12.8927C3.44016 13.906 3.53349 15.1727 5.86016 15.1727H10.1402C12.4668 15.1727 12.5602 13.9127 12.6335 12.8927L13.0468 6.05935C13.0602 5.81935 12.9735 5.59268 12.8202 5.42602ZM9.10682 11.8327H6.88683C6.61349 11.8327 6.38683 11.606 6.38683 11.3327C6.38683 11.0593 6.61349 10.8327 6.88683 10.8327H9.10682C9.38016 10.8327 9.60682 11.0593 9.60682 11.3327C9.60682 11.606 9.38016 11.8327 9.10682 11.8327ZM9.66683 9.16602H6.33349C6.06016 9.16602 5.83349 8.93935 5.83349 8.66602C5.83349 8.39268 6.06016 8.16602 6.33349 8.16602H9.66683C9.94016 8.16602 10.1668 8.39268 10.1668 8.66602C10.1668 8.93935 9.94016 9.16602 9.66683 9.16602Z"/>
</svg>
