<svg width="18" height="13" viewBox="0 0 18 13" xmlns="http://www.w3.org/2000/svg">
<path d="M17.841 0.904274L12.3818 6.32826L17.841 11.7522C17.9397 11.546 17.9995 11.3179 17.9995 11.0745V1.58207C17.9995 1.33853 17.9397 1.11054 17.841 0.904274Z"/>
<path d="M16.4183 0H1.58209C1.33856 0 1.11056 0.0598726 0.904297 0.158558L7.88166 7.10078C8.4986 7.71771 9.50184 7.71771 10.1188 7.10078L17.0961 0.158558C16.8899 0.0598726 16.6619 0 16.4183 0Z"/>
<path d="M0.158558 0.904274C0.0598724 1.11054 0 1.33853 0 1.58207V11.0745C0 11.318 0.0598724 11.546 0.158558 11.7522L5.6177 6.32826L0.158558 0.904274Z"/>
<path d="M11.637 7.07397L10.8645 7.84648C9.83653 8.87444 8.16387 8.87444 7.13591 7.84648L6.36344 7.07397L0.904297 12.498C1.11056 12.5966 1.33856 12.6565 1.58209 12.6565H16.4183C16.6619 12.6565 16.8899 12.5966 17.0961 12.498L11.637 7.07397Z"/>
</svg>
