<svg width="19" height="20" viewBox="0 0 19 20" xmlns="http://www.w3.org/2000/svg">
<path d="M4.28684 10.6897V4.55078H1.48936C0.665879 4.55078 0 5.193 0 5.98256V18.6721C0 19.3106 0.803783 19.6279 1.27266 19.1783L4.34988 16.2279H13.1127C13.9362 16.2279 14.6021 15.5894 14.6021 14.7999V12.1177H5.78014C4.95666 12.1177 4.28684 11.4792 4.28684 10.6897Z"/>
<path d="M17.3998 0.5H5.78038C4.95689 0.5 4.29102 1.13844 4.29102 1.928V4.54978H13.1129C13.9364 4.54978 14.6023 5.18822 14.6023 5.97778V12.1129H17.3998C18.2232 12.1129 18.8891 11.4744 18.8891 10.6849V1.928C18.8891 1.13844 18.2232 0.5 17.3998 0.5Z"/>
<path opacity="0.5" d="M13.113 4.55078H4.28711V10.6859C4.28711 11.4755 4.95299 12.1139 5.77647 12.1139H14.5984V5.98256C14.6023 5.193 13.9364 4.55078 13.113 4.55078Z"/>
</svg>
