<svg width="20" height="20" viewBox="0 0 20 20" fill="none" xmlns="http://www.w3.org/2000/svg">
<mask id="mask0_2708_745" style="mask-type:alpha" maskUnits="userSpaceOnUse" x="1" y="2" width="18" height="16">
<path d="M14.9317 11.932C14.7159 12.1412 14.6167 12.4437 14.6659 12.7404L15.4067 16.8404C15.4692 17.1879 15.3226 17.5395 15.0317 17.7404C14.7467 17.9487 14.3676 17.9737 14.0567 17.807L10.3659 15.882C10.2376 15.8137 10.0951 15.777 9.94925 15.7729H9.72341C9.64508 15.7845 9.56841 15.8095 9.49841 15.8479L5.80675 17.782C5.62425 17.8737 5.41758 17.9062 5.21508 17.8737C4.72175 17.7804 4.39258 17.3104 4.47341 16.8145L5.21508 12.7145C5.26425 12.4154 5.16508 12.1112 4.94925 11.8987L1.94008 8.98203C1.68841 8.73786 1.60091 8.3712 1.71591 8.04036C1.82758 7.71036 2.11258 7.46953 2.45675 7.41536L6.59841 6.81453C6.91341 6.78203 7.19008 6.59036 7.33175 6.30703L9.15674 2.56536C9.20008 2.48203 9.25591 2.40536 9.32341 2.34036L9.39841 2.28203C9.43758 2.2387 9.48258 2.20286 9.53258 2.1737L9.62341 2.14036L9.76508 2.08203H10.1159C10.4292 2.11453 10.7051 2.30203 10.8492 2.58203L12.6984 6.30703C12.8317 6.57953 13.0909 6.7687 13.3901 6.81453L17.5317 7.41536C17.8817 7.46536 18.1742 7.70703 18.2901 8.04036C18.3992 8.37453 18.3051 8.7412 18.0484 8.98203L14.9317 11.932Z" fill="#FFDC8F"/>
</mask>
<g mask="url(#mask0_2708_745)">
<rect x="1.11133" y="1.10938" width="8.88889" height="17.7778" fill="#FFDC8F"/>
<path fill-rule="evenodd" clip-rule="evenodd" d="M10.9202 3.48214L12.4431 6.52443C12.5923 6.8231 12.8804 7.0302 13.2145 7.07812L16.6211 7.56848C17.4628 7.69 17.7977 8.71009 17.1886 9.29459L14.7252 11.6617C14.4831 11.8944 14.3729 12.2291 14.4301 12.5577L15.0115 15.8995C15.1547 16.7262 14.2748 17.3569 13.5225 16.9658L10.4777 15.3869C10.1792 15.232 9.82168 15.232 9.52232 15.3869L6.4775 16.9658C5.72519 17.3569 4.84533 16.7262 4.98937 15.8995L5.56987 12.5577C5.62714 12.2291 5.51694 11.8944 5.27485 11.6617L2.8114 9.29459C2.20226 8.71009 2.5372 7.69 3.37889 7.56848L6.78554 7.07812C7.11961 7.0302 7.40856 6.8231 7.55781 6.52443L9.07979 3.48214C9.45638 2.72991 10.5436 2.72991 10.9202 3.48214Z" stroke="#FFDC8F" stroke-width="1.5" stroke-linecap="round" stroke-linejoin="round"/>
</g>
</svg>
