<svg width="18" height="16" viewBox="0 0 18 16" xmlns="http://www.w3.org/2000/svg">
<path fill-rule="evenodd" clip-rule="evenodd" d="M7.16874 10.7105C7.68914 11.0633 8.32337 11.2766 8.99825 11.2766C10.7871 11.2766 12.2426 9.80803 12.2426 8.0031C12.2426 7.32215 12.0312 6.68222 11.6815 6.15714L10.7952 7.05141C10.9416 7.33035 11.0229 7.65852 11.0229 8.0031C11.0229 9.12708 10.1122 10.046 8.99825 10.046C8.65674 10.046 8.3315 9.96391 8.05504 9.81623L7.16874 10.7105ZM14.3567 3.45795C15.5357 4.54091 16.5358 6.00126 17.2839 7.75697C17.3489 7.91285 17.3489 8.09334 17.2839 8.24102C15.5438 12.3267 12.4459 14.7716 8.99825 14.7716H8.99012C7.42081 14.7716 5.91654 14.2547 4.59117 13.3112L3.01372 14.9029C2.89176 15.0259 2.73726 15.0834 2.58277 15.0834C2.42828 15.0834 2.26566 15.0259 2.15182 14.9029C1.94854 14.6978 1.91602 14.3696 2.07864 14.1317L2.10303 14.0988L14.129 1.96478L14.129 1.96477C14.1453 1.94837 14.1615 1.93196 14.1697 1.91555L14.1697 1.91555C14.1859 1.89914 14.2022 1.88273 14.2103 1.86633L14.9746 1.09513C15.2186 0.857206 15.6007 0.857206 15.8366 1.09513C16.0805 1.33305 16.0805 1.72686 15.8366 1.96478L14.3567 3.45795ZM5.74799 8.0063C5.74799 8.21961 5.77238 8.43292 5.8049 8.62982L2.79638 11.6654C1.98326 10.7137 1.27585 9.5651 0.714803 8.24422C0.649753 8.09654 0.649753 7.91605 0.714803 7.76017C2.45487 3.67446 5.55284 1.2378 8.99232 1.2378H9.00045C10.1632 1.2378 11.2934 1.51674 12.3342 2.04182L9.61841 4.78203C9.42327 4.74921 9.21186 4.7246 9.00045 4.7246C7.20346 4.7246 5.74799 6.19316 5.74799 8.0063Z"/>
</svg>
