<svg width="18" height="20" viewBox="0 0 18 20" xmlns="http://www.w3.org/2000/svg">
<path d="M13.7056 5.03906C14.7201 5.22148 15.5521 5.76836 16.2025 6.67969C16.7748 7.48711 17.165 8.50273 17.3728 9.72656C17.5552 10.8465 17.5415 11.966 17.3337 13.0859C17.0216 14.9348 16.3974 16.4844 15.4611 17.7344C14.3423 19.2449 12.938 20 11.2474 20C10.831 20 10.3763 19.8699 9.88178 19.6094C9.5435 19.4012 9.16654 19.2969 8.75014 19.2969C8.33373 19.2969 7.95717 19.4012 7.6185 19.6094C7.12396 19.8699 6.66928 20 6.25287 20C4.56224 20 3.15795 19.2449 2.03919 17.7344C1.10287 16.4844 0.478647 14.9348 0.166537 13.0859C-0.0412754 11.966 -0.0549473 10.8465 0.127475 9.72656C0.335287 8.50273 0.725522 7.48711 1.29779 6.67969C1.94818 5.76836 2.78021 5.22148 3.79466 5.03906C4.41888 4.93477 5.27709 5.02617 6.36967 5.3125C7.306 5.57305 8.09935 5.88555 8.74975 6.25C9.40014 5.88555 10.1935 5.57305 11.1298 5.3125C12.2228 5.02617 13.0814 4.93477 13.7056 5.03906ZM11.5595 3.4375C11.1955 3.77617 10.7138 4.02344 10.1158 4.17969C9.69936 4.30977 9.24467 4.375 8.75014 4.375L8.16498 4.33594C8.11303 3.97148 8.11303 3.55469 8.16498 3.08594C8.26928 2.14844 8.56811 1.43242 9.06225 0.9375C9.42631 0.598828 9.90795 0.351562 10.506 0.195312C10.9224 0.0652344 11.3771 0 11.8716 0L12.4568 0.0390625L12.4958 0.625C12.4958 1.11992 12.4306 1.57539 12.3009 1.99219C12.1451 2.59102 11.8982 3.07305 11.5595 3.4375Z"/>
</svg>
