<svg width="14" height="4" viewBox="0 0 14 4" xmlns="http://www.w3.org/2000/svg">
<path d="M3.66634 2.00065C3.66634 2.44268 3.49075 2.8666 3.17819 3.17916C2.86563 3.49172 2.4417 3.66732 1.99967 3.66732C1.55765 3.66732 1.13372 3.49172 0.821163 3.17916C0.508602 2.8666 0.333008 2.44268 0.333008 2.00065C0.333008 1.55862 0.508602 1.1347 0.821163 0.82214C1.13372 0.509579 1.55765 0.333984 1.99967 0.333984C2.4417 0.333984 2.86563 0.509579 3.17819 0.82214C3.49075 1.1347 3.66634 1.55862 3.66634 2.00065Z"/>
<path d="M8.66634 2.00065C8.66634 2.44268 8.49075 2.8666 8.17819 3.17916C7.86562 3.49172 7.4417 3.66732 6.99967 3.66732C6.55765 3.66732 6.13372 3.49172 5.82116 3.17916C5.5086 2.8666 5.33301 2.44268 5.33301 2.00065C5.33301 1.55862 5.5086 1.1347 5.82116 0.82214C6.13372 0.509579 6.55765 0.333984 6.99967 0.333984C7.4417 0.333984 7.86562 0.509579 8.17819 0.82214C8.49075 1.1347 8.66634 1.55862 8.66634 2.00065Z"/>
<path d="M11.9997 3.66732C12.4417 3.66732 12.8656 3.49172 13.1782 3.17916C13.4907 2.8666 13.6663 2.44268 13.6663 2.00065C13.6663 1.55862 13.4907 1.1347 13.1782 0.82214C12.8656 0.509579 12.4417 0.333984 11.9997 0.333984C11.5576 0.333984 11.1337 0.509579 10.8212 0.82214C10.5086 1.1347 10.333 1.55862 10.333 2.00065C10.333 2.44268 10.5086 2.8666 10.8212 3.17916C11.1337 3.49172 11.5576 3.66732 11.9997 3.66732Z"/>
</svg>
