<svg width="20" height="21" viewBox="0 0 20 21" xmlns="http://www.w3.org/2000/svg">
<path d="M10.9992 2.5C9.63122 2.5 8.50703 3.556 8.40703 4.9H9.59922C10.7032 4.9 11.5992 5.796 11.5992 6.9V7.62812C12.7472 7.36012 13.5992 6.328 13.5992 5.1C13.5992 3.664 12.4352 2.5 10.9992 2.5ZM16.9992 4.1C16.5218 4.1 16.064 4.28964 15.7264 4.62721C15.3889 4.96477 15.1992 5.42261 15.1992 5.9C15.1992 6.37739 15.3889 6.83523 15.7264 7.17279C16.064 7.51036 16.5218 7.7 16.9992 7.7C17.4766 7.7 17.9344 7.51036 18.272 7.17279C18.6096 6.83523 18.7992 6.37739 18.7992 5.9C18.7992 5.42261 18.6096 4.96477 18.272 4.62721C17.9344 4.28964 17.4766 4.1 16.9992 4.1ZM2.39922 5.7C1.73762 5.7 1.19922 6.2384 1.19922 6.9V14.1C1.19922 14.7616 1.73762 15.3 2.39922 15.3H9.59922C10.2608 15.3 10.7992 14.7616 10.7992 14.1V6.9C10.7992 6.2384 10.2608 5.7 9.59922 5.7H2.39922ZM3.99922 8.1H7.99922V8.9H6.39922V12.9H5.59922V8.9H3.99922V8.1ZM11.5992 8.9V14.1C11.5992 15.204 10.7032 16.1 9.59922 16.1H7.27891C7.43891 16.884 7.82709 17.5841 8.37109 18.1281C9.09509 18.8521 10.0952 19.3 11.1992 19.3C13.4072 19.3 15.1992 17.508 15.1992 15.3V8.9H11.5992ZM15.9992 8.9V15.3C15.9992 15.628 15.967 15.9482 15.907 16.2562C16.239 16.4122 16.6072 16.5 16.9992 16.5C18.4352 16.5 19.5992 15.336 19.5992 13.9V8.9H15.9992Z" />
</svg>
