<svg width="20" height="16" viewBox="0 0 20 16" xmlns="http://www.w3.org/2000/svg">
<path d="M8.5 5.99706C7.95 5.99706 7.5 6.44706 7.5 6.99706V9.49706C7.5 9.77331 7.27625 9.99706 7 9.99706C6.72375 9.99706 6.5 9.77331 6.5 9.49706V7.10487C6.5 6.56144 6.6475 6.02769 6.92781 5.56144L9.3575 1.51175C9.64156 1.038 9.48844 0.423933 9.01469 0.139558C8.56312 -0.13138 7.99219 0.00518257 7.69281 0.42737C7.68656 0.434558 7.67344 0.433933 7.66812 0.44237L4.00375 5.93925C3.67375 6.43425 3.5 7.00956 3.5 7.60269V10.1099L0.68375 11.0486C0.484615 11.1149 0.311397 11.2422 0.188667 11.4124C0.0659374 11.5826 -7.29019e-05 11.7872 6.04197e-08 11.9971V14.9971C6.04197e-08 15.3352 0.26625 15.9971 1 15.9971C1.08406 15.9971 1.16906 15.9864 1.25188 15.9649L6.85156 14.508C8.41125 14.0621 9.5 12.6186 9.5 10.9971V6.99706C9.5 6.44706 9.05 5.99706 8.5 5.99706ZM19.3162 11.0511L16.5 10.1124V7.60519C16.5 7.01206 16.3262 6.43675 15.9962 5.94175L12.3319 0.445183C12.3262 0.436745 12.3134 0.437683 12.3072 0.430183C12.0078 0.00799507 11.4369 -0.128567 10.9853 0.14237C10.5116 0.426433 10.3584 1.04081 10.6425 1.51456L13.0722 5.56425C13.3525 6.0305 13.5 6.56425 13.5 7.10769V9.49988C13.5 9.77612 13.2762 9.99988 13 9.99988C12.7237 9.99988 12.5 9.77612 12.5 9.49988V6.99987C12.5 6.44987 12.05 5.99987 11.5 5.99987C10.95 5.99987 10.5 6.44987 10.5 6.99987V10.9999C10.5 12.6214 11.5887 14.0649 13.1484 14.5105L18.7481 15.9674C18.8312 15.9889 18.9162 15.9996 19 15.9996C19.7337 15.9996 20 15.3377 20 14.9996V11.9996C20 11.5693 19.7247 11.1874 19.3162 11.0511Z"/>
</svg>
