<svg width="18" height="16" viewBox="0 0 18 16" xmlns="http://www.w3.org/2000/svg">
<path d="M8.99935 0.5C4.41602 0.5 0.666016 3.48333 0.666016 7.16667C0.666016 8.94167 1.54102 10.5583 2.95768 11.75C2.91602 12.25 2.60768 13.5583 0.666016 15.5C0.666016 15.5 3.62435 15.5 6.05768 13.4167C6.97435 13.6833 7.96602 13.8333 8.99935 13.8333C13.5827 13.8333 17.3327 10.85 17.3327 7.16667C17.3327 3.48333 13.5827 0.5 8.99935 0.5ZM11.4993 5.75L8.79935 8.83333H11.4993V10.5H6.49935V8.58333L9.19935 5.5H6.49935V3.83333H11.4993V5.75Z"/>
</svg>
