<svg width="18" height="18" viewBox="0 0 18 18" xmlns="http://www.w3.org/2000/svg">
<path d="M6.66051 3.44906C6.06051 0.854063 2.15301 0.846563 1.55301 3.44906C1.20051 4.97156 2.16801 6.26156 3.00801 7.06406C3.62301 7.64156 4.59051 7.64156 5.20551 7.06406C6.04551 6.26156 7.00551 4.97156 6.66051 3.44906ZM4.13301 4.64906C3.72051 4.64906 3.38301 4.31156 3.38301 3.89906C3.38301 3.48656 3.71301 3.14906 4.12551 3.14906H4.13301C4.55301 3.14906 4.88301 3.48656 4.88301 3.89906C4.88301 4.31156 4.55301 4.64906 4.13301 4.64906Z"/>
<path d="M16.433 12.4491C15.833 9.85406 11.9105 9.84656 11.303 12.4491C10.9505 13.9716 11.918 15.2616 12.7655 16.0641C13.3805 16.6416 14.3555 16.6416 14.9705 16.0641C15.818 15.2616 16.7855 13.9716 16.433 12.4491ZM13.898 13.6491C13.4855 13.6491 13.148 13.3116 13.148 12.8991C13.148 12.4866 13.478 12.1491 13.8905 12.1491H13.898C14.3105 12.1491 14.648 12.4866 14.648 12.8991C14.648 13.3116 14.3105 13.6491 13.898 13.6491Z"/>
<path d="M8.9991 14.8125H6.9891C6.1191 14.8125 5.3616 14.2875 5.0616 13.4775C4.7541 12.6675 4.9791 11.775 5.6316 11.1975L11.6241 5.955C11.9841 5.64 11.9916 5.2125 11.8866 4.92C11.7741 4.6275 11.4891 4.3125 11.0091 4.3125H8.9991C8.6916 4.3125 8.4366 4.0575 8.4366 3.75C8.4366 3.4425 8.6916 3.1875 8.9991 3.1875H11.0091C11.8791 3.1875 12.6366 3.7125 12.9366 4.5225C13.2441 5.3325 13.0191 6.225 12.3666 6.8025L6.3741 12.045C6.0141 12.36 6.0066 12.7875 6.1116 13.08C6.2241 13.3725 6.5091 13.6875 6.9891 13.6875H8.9991C9.3066 13.6875 9.5616 13.9425 9.5616 14.25C9.5616 14.5575 9.3066 14.8125 8.9991 14.8125Z"/>
</svg>
