<svg width="18" height="18" viewBox="0 0 18 18" fill="none" xmlns="http://www.w3.org/2000/svg">
<path d="M0.8375 8.625C0.8375 12.9177 4.33227 16.4125 8.625 16.4125C12.9177 16.4125 16.4125 12.9177 16.4125 8.625C16.4125 4.33227 12.9177 0.8375 8.625 0.8375C4.33227 0.8375 0.8375 4.33227 0.8375 8.625ZM2.1625 8.625C2.1625 5.06515 5.0578 2.1625 8.625 2.1625C12.1922 2.1625 15.0875 5.06515 15.0875 8.625C15.0875 12.1848 12.1922 15.0875 8.625 15.0875C5.0578 15.0875 2.1625 12.1848 2.1625 8.625Z" fill="#2B6AF5" stroke="#2B6AF5" stroke-width="0.2"/>
<path d="M16.0319 16.9683C16.1641 17.1005 16.3325 17.1626 16.5001 17.1626C16.6677 17.1626 16.836 17.1005 16.9683 16.9683C17.2248 16.7117 17.2248 16.2884 16.9683 16.0319L15.4683 14.5319C15.2117 14.2753 14.7884 14.2753 14.5319 14.5319C14.2753 14.7884 14.2753 15.2117 14.5319 15.4683L16.0319 16.9683Z" fill="#2B6AF5" stroke="#2B6AF5" stroke-width="0.2"/>
</svg>
