<svg width="18" height="14" viewBox="0 0 18 14" xmlns="http://www.w3.org/2000/svg">
<path fill-rule="evenodd" clip-rule="evenodd" d="M5.74732 7.00004C5.74732 8.77782 7.2026 10.2243 8.99935 10.2243C10.788 10.2243 12.2433 8.77782 12.2433 7.00004C12.2433 5.21418 10.788 3.76772 8.99935 3.76772C7.2026 3.76772 5.74732 5.21418 5.74732 7.00004ZM13.7798 2.03842C15.2026 3.13741 16.414 4.74549 17.2839 6.75762C17.3489 6.91115 17.3489 7.08893 17.2839 7.23438C15.5441 11.2586 12.4465 13.6667 8.99935 13.6667H8.99122C5.55219 13.6667 2.45463 11.2586 0.714796 7.23438C0.649755 7.08893 0.649755 6.91115 0.714796 6.75762C2.45463 2.73337 5.55219 0.333374 8.99122 0.333374H8.99935C10.7229 0.333374 12.3571 0.931354 13.7798 2.03842ZM9.00032 9.01038C10.1141 9.01038 11.0247 8.10533 11.0247 6.99826C11.0247 5.88311 10.1141 4.97806 9.00032 4.97806C8.90276 4.97806 8.8052 4.98614 8.71577 5.0023C8.68325 5.89119 7.95154 6.6023 7.0491 6.6023H7.00845C6.98406 6.7316 6.9678 6.86089 6.9678 6.99826C6.9678 8.10533 7.87837 9.01038 9.00032 9.01038Z"/>
</svg>
