<svg width="20" height="20" viewBox="0 0 20 20" xmlns="http://www.w3.org/2000/svg">
<path d="M6.99219 15.4076V6.94095C6.99219 6.60762 7.09219 6.28262 7.27552 6.00762L9.55052 2.62429C9.90885 2.08262 10.8005 1.69929 11.5589 1.98262C12.3755 2.25762 12.9172 3.17429 12.7422 3.99095L12.3089 6.71595C12.2755 6.96595 12.3422 7.19095 12.4839 7.36595C12.6255 7.52429 12.8339 7.62429 13.0589 7.62429H16.4839C17.1422 7.62429 17.7089 7.89095 18.0422 8.35762C18.3589 8.80762 18.4172 9.39095 18.2089 9.98262L16.1589 16.2243C15.9005 17.2576 14.7755 18.0993 13.6589 18.0993H10.4089C9.85052 18.0993 9.06719 17.9076 8.70885 17.5493L7.64219 16.7243C7.23385 16.416 6.99219 15.9243 6.99219 15.4076Z"/>
<path d="M4.34102 5.31641H3.48268C2.19102 5.31641 1.66602 5.81641 1.66602 7.04974V15.4331C1.66602 16.6664 2.19102 17.1664 3.48268 17.1664H4.34102C5.63268 17.1664 6.15768 16.6664 6.15768 15.4331V7.04974C6.15768 5.81641 5.63268 5.31641 4.34102 5.31641Z"/>
</svg>
