<svg width="20" height="20" viewBox="0 0 20 20" xmlns="http://www.w3.org/2000/svg">
<path d="M6.3748 17.4255C6.3498 17.4255 6.31647 17.4422 6.29147 17.4422C4.6748 16.6422 3.35814 15.3172 2.5498 13.7005C2.5498 13.6755 2.56647 13.6422 2.56647 13.6172C3.58314 13.9172 4.63314 14.1422 5.6748 14.3172C5.85814 15.3672 6.0748 16.4089 6.3748 17.4255Z"/>
<path d="M17.4502 13.7089C16.6252 15.3672 15.2502 16.7089 13.5752 17.5172C13.8919 16.4589 14.1585 15.3922 14.3335 14.3172C15.3835 14.1422 16.4169 13.9172 17.4335 13.6172C17.4252 13.6505 17.4502 13.6839 17.4502 13.7089Z"/>
<path d="M17.5169 6.42409C16.4669 6.10742 15.4085 5.84909 14.3335 5.66576C14.1585 4.59076 13.9002 3.52409 13.5752 2.48242C15.3002 3.30742 16.6919 4.69909 17.5169 6.42409Z"/>
<path d="M6.37507 2.57578C6.07507 3.59245 5.8584 4.62578 5.6834 5.67578C4.6084 5.84245 3.54173 6.10911 2.4834 6.42578C3.29173 4.75078 4.6334 3.37578 6.29173 2.55078C6.31673 2.55078 6.35007 2.57578 6.37507 2.57578Z"/>
<path d="M12.9085 5.49102C10.9751 5.27435 9.02513 5.27435 7.0918 5.49102C7.30013 4.34935 7.5668 3.20768 7.9418 2.10768C7.95846 2.04102 7.95013 1.99102 7.95846 1.92435C8.6168 1.76602 9.2918 1.66602 10.0001 1.66602C10.7001 1.66602 11.3835 1.76602 12.0335 1.92435C12.0418 1.99102 12.0418 2.04102 12.0585 2.10768C12.4335 3.21602 12.7001 4.34935 12.9085 5.49102Z"/>
<path d="M5.49199 12.9085C4.34199 12.7001 3.20866 12.4335 2.10866 12.0585C2.04199 12.0418 1.99199 12.0501 1.92533 12.0418C1.76699 11.3835 1.66699 10.7085 1.66699 10.0001C1.66699 9.30013 1.76699 8.6168 1.92533 7.9668C1.99199 7.95846 2.04199 7.95846 2.10866 7.9418C3.21699 7.57513 4.34199 7.30013 5.49199 7.0918C5.28366 9.02513 5.28366 10.9751 5.49199 12.9085Z"/>
<path d="M18.3338 10.0001C18.3338 10.7085 18.2338 11.3835 18.0755 12.0418C18.0088 12.0501 17.9588 12.0418 17.8921 12.0585C16.7838 12.4251 15.6505 12.7001 14.5088 12.9085C14.7255 10.9751 14.7255 9.02513 14.5088 7.0918C15.6505 7.30013 16.7921 7.5668 17.8921 7.9418C17.9588 7.95846 18.0088 7.9668 18.0755 7.9668C18.2338 8.62513 18.3338 9.30013 18.3338 10.0001Z"/>
<path d="M12.9085 14.5078C12.7001 15.6578 12.4335 16.7911 12.0585 17.8911C12.0418 17.9578 12.0418 18.0078 12.0335 18.0745C11.3835 18.2328 10.7001 18.3328 10.0001 18.3328C9.2918 18.3328 8.6168 18.2328 7.95846 18.0745C7.95013 18.0078 7.95846 17.9578 7.9418 17.8911C7.57513 16.7828 7.30013 15.6578 7.0918 14.5078C8.05846 14.6161 9.02513 14.6911 10.0001 14.6911C10.9751 14.6911 11.9501 14.6161 12.9085 14.5078Z"/>
<path d="M13.1364 13.1355C11.0522 13.3984 8.94846 13.3984 6.86422 13.1355C6.60125 11.0512 6.60125 8.94749 6.86422 6.86324C8.94846 6.60027 11.0522 6.60027 13.1364 6.86324C13.3994 8.94749 13.3994 11.0512 13.1364 13.1355Z"/>
</svg>
